<?xml version="1.0" encoding="utf-8"?>
<!-- Generator: Adobe Illustrator 13.0.0, SVG Export Plug-In . SVG Version: 6.00 Build 14948)  -->
<!DOCTYPE svg PUBLIC "-//W3C//DTD SVG 1.1//EN" "http://www.w3.org/Graphics/SVG/1.1/DTD/svg11.dtd">
<svg version="1.1" id="Layer_1" xmlns="http://www.w3.org/2000/svg" xmlns:xlink="http://www.w3.org/1999/xlink" x="0px" y="0px"
	 width="184.383px" height="69.767px" viewBox="0 0 184.383 69.767" enable-background="new 0 0 184.383 69.767"
	 xml:space="preserve">
<path fill-rule="evenodd" clip-rule="evenodd" fill="#005480" d="M177.04,20.16v-1.08c0.72,0,1.367,0.072,1.655,0.072
	c-0.72-2.016-1.224-3.456-1.584-4.536l0,0l-0.071,0.072v-2.304l1.583-0.648l0.072,0.072c0,0.576,0.072,0.72,0.288,1.296
	c0.288,0.792,1.224,3.168,3.528,8.928c0.288,0.936,0.504,1.008,1.872,1.584l-0.144,0.504c-0.937,0-1.872,0-2.809,0
	c-0.721,0-1.44,0-2.16,0l0.216-0.432l0.576-0.648c-0.072-0.36-0.576-1.584-1.08-2.952C178.551,20.16,178.047,20.16,177.04,20.16z
	 M177.04,12.384v2.304c-0.937,2.592-1.152,3.24-1.584,4.392c0.288,0,0.936,0,1.584,0v1.08c-0.504,0-1.152,0-1.944,0
	c-0.576,1.368-0.792,2.016-1.009,2.736l1.44,0.72l-0.144,0.504c-0.647,0-1.297,0-1.944,0c-0.648,0-1.368,0-2.016,0l0.144-0.504
	l1.224-0.72c0.504-0.864,2.449-5.472,3.889-9.216c0.071-0.144,0.071-0.288,0.071-0.504l-0.215-0.576L177.04,12.384L177.04,12.384z
	 M154.502,37.152v-1.08c0.649,0,1.297,0,1.584,0c-0.647-1.944-1.151-3.384-1.512-4.536h-0.072v0.144v-2.376l1.584-0.648l0.072,0.072
	c0,0.576,0,0.792,0.289,1.368c0.216,0.72,1.151,3.096,3.455,8.856c0.36,0.937,0.576,1.08,1.872,1.656l-0.144,0.504
	c-0.937,0-1.872-0.071-2.809-0.071c-0.72,0-1.439,0.071-2.087,0.071l0.143-0.504l0.577-0.576c-0.072-0.36-0.577-1.656-1.08-2.952
	C156.015,37.08,155.511,37.152,154.502,37.152L154.502,37.152z M154.502,22.608v-9.36c1.584,1.08,2.233,2.664,2.233,4.608
	C156.736,20.16,155.727,21.672,154.502,22.608L154.502,22.608z M162.639,23.616l-1.944-0.72c-0.144-0.72-0.144-4.968-0.072-7.776
	l0,0c3.456,4.464,6.769,8.208,8.353,9.36l0.36-0.072c0.071-0.432,0.071-1.296,0.071-1.872c0.072-3.312,0.216-8.352,0.288-9.144
	l1.296-0.72l0.145-0.504c-0.721,0-1.44,0-2.16,0c-0.647,0-1.512,0-2.231,0l-0.217,0.432l1.944,0.792
	c0,0.936,0.072,6.336,0.072,7.056l0,0c-2.377-2.592-4.032-4.536-6.337-7.272c-0.432-0.576-0.647-1.008-0.72-1.152l-3.455,0.144
	l-0.217,0.504c0.864,0.288,1.152,0.36,2.017,1.44c-0.145,5.184-0.288,8.064-0.36,8.712l-1.439,0.792l-0.072,0.504
	c0.72,0,1.439,0,2.159,0c0.792,0,1.656,0,2.376,0L162.639,23.616z M154.502,13.248v9.36c-0.575,0.432-1.223,0.72-1.799,0.936
	c-0.505,0.216-1.009,0.36-1.585,0.432v-1.008c0.433-0.216,0.864-0.504,1.225-0.864c1.008-0.936,1.512-2.232,1.512-4.104
	c0-1.44-0.36-2.952-1.584-3.96c-0.36-0.36-0.792-0.576-1.152-0.792v-1.152C152.487,12.312,153.639,12.672,154.502,13.248
	L154.502,13.248z M154.502,29.304v2.376c-1.008,2.52-1.223,3.24-1.584,4.321c0.288,0,0.937,0,1.584,0.071v1.08
	c-0.504,0-1.151,0-2.016,0c-0.504,1.368-0.72,2.016-0.936,2.736l1.439,0.72l-0.144,0.504c-0.576,0-1.225,0-1.729,0v-3.168
	c0.792-1.872,2.017-4.752,3.024-7.344c0-0.144,0-0.288,0-0.432l-0.216-0.648L154.502,29.304z M151.119,12.096v1.152
	c-0.864-0.36-1.8-0.432-2.808-0.432v5.04c0,3.024,0,5.328,0.072,5.616c0.864,0,1.8-0.144,2.735-0.504v1.008
	c-1.079,0.144-2.304,0.216-3.96,0.216c-1.08,0-2.375-0.072-3.023-0.072l0.145-0.504l1.295-0.576c0.072-0.36,0.145-2.088,0.145-5.184
	v-4.68l-1.439-0.504l0.071-0.432c0.359-0.072,2.304-0.216,4.608-0.216C149.75,12.024,150.471,12.024,151.119,12.096L151.119,12.096z
	 M151.119,37.944v3.168l-0.287-0.071c-0.648,0-1.296,0.071-2.017,0.071l0.145-0.504l1.295-0.792
	C150.399,39.528,150.687,38.879,151.119,37.944L151.119,37.944z M128.656,58.032V46.08h3.455c0.217-0.072,1.512-0.216,1.944-0.287
	l0.072,0.071c0,0.504-0.288,2.448-0.433,2.88l-0.359,0.145c-0.217-0.36-0.864-1.584-1.152-2.017l-3.168,0.217v4.319
	c1.584,0,3.384-0.145,4.607-0.288l0.145,0.216c-0.072,0.217-0.936,1.224-1.152,1.224c-0.216,0-2.879-0.216-3.6-0.216
	c0,1.08,0,3.313,0.071,4.681l3.241,0.216c0.647-0.864,1.512-1.943,2.087-2.52l0.361,0.215c-0.072,0.289-0.577,2.736-0.721,3.169
	c-1.152-0.072-2.16-0.072-3.168-0.072H128.656L128.656,58.032z M128.656,41.4v-0.721c0.071,0,0.144,0,0.288,0
	c2.663,0,3.311-3.167,3.311-5.471c0-2.232-1.151-5.544-3.599-5.688v-0.792l0,0h0.071c2.664,0,6.408,1.8,6.479,6.192
	C135.28,39.456,131.75,41.4,128.656,41.4L128.656,41.4L128.656,41.4z M128.656,23.256V18.72c0.575,0.936,1.511,2.376,2.088,3.24
	c1.151,1.728,1.439,1.944,1.584,2.232l-0.145,0.216C130.24,24.408,129.303,23.976,128.656,23.256L128.656,23.256z M128.656,17.856
	V12.24c1.655,0.432,2.376,1.44,2.376,2.808C131.032,16.632,129.736,17.496,128.656,17.856L128.656,17.856z M132.975,12.6
	l1.584,0.648v4.608c0,3.096-0.072,4.896-0.145,5.112l-1.439,0.72l-0.144,0.504c0.936,0,2.016-0.072,2.879-0.072h3.313
	c1.009,0,2.017,0,3.168,0.072c0.145-0.432,0.648-2.88,0.72-3.168l-0.359-0.216c-0.648,0.576-1.44,1.656-2.16,2.52l-3.168-0.216
	c-0.071-1.368-0.071-3.6-0.071-4.68c0.72,0,3.384,0.288,3.599,0.288c0.217,0,1.081-1.08,1.081-1.296l-0.072-0.216
	c-1.224,0.144-3.096,0.288-4.607,0.288v-4.32l3.167-0.216c0.288,0.432,0.936,1.656,1.152,2.016l0.36-0.072
	c0.144-0.504,0.432-2.448,0.432-2.952l-0.072-0.072c-0.432,0.072-1.728,0.216-1.943,0.288h-4.464c-0.865,0-1.729,0-2.665,0
	L132.975,12.6L132.975,12.6z M136.575,29.808l1.512,0.36v5.112c0,2.376-0.143,4.032-0.143,4.681l-1.369,0.647l-0.144,0.504
	c1.008,0,2.017-0.071,2.952-0.071s1.944,0.071,2.88,0.071l0.144-0.504l-1.728-0.647c0-0.864,0-2.232,0-4.681v-5.472
	c1.8-0.072,3.239,0.504,3.239,2.592c0,1.8-1.079,2.52-2.808,2.88v0.144c1.008,1.8,2.16,3.672,2.952,4.537
	c0.721,0.863,1.584,1.367,3.744,1.439l0.216-0.216c-0.216-0.288-0.432-0.576-1.655-2.232c-0.721-1.08-2.017-3.168-2.449-3.96l0,0
	c1.152-0.432,2.736-1.224,2.736-3.024c0-1.872-1.367-3.024-4.823-3.024c-2.017,0-4.32,0.216-5.112,0.36L136.575,29.808z
	 M128.656,12.24v5.616c-0.145,0.072-0.217,0.144-0.361,0.144v0.072c0.073,0.144,0.217,0.36,0.361,0.648v4.536
	c-0.073-0.072-0.217-0.144-0.288-0.288c-0.721-0.792-1.873-2.664-2.953-4.536l0.072-0.072c1.729-0.432,2.736-1.152,2.736-2.88
	c0-2.088-1.368-2.664-3.24-2.664v5.472c0,2.52,0,3.888,0.072,4.68l1.655,0.648l-0.071,0.504c-1.008,0-1.944,0-2.88,0
	c-1.009,0-1.944,0-2.952,0l0.145-0.504l1.296-0.648c0.071-0.576,0.144-2.232,0.144-4.68v-5.112l-1.513-0.288l0.217-0.504
	c0.72-0.144,3.096-0.36,5.111-0.36C127.143,12.024,128.007,12.096,128.656,12.24L128.656,12.24z M128.656,28.728v0.792
	c-0.073,0-0.145,0-0.217,0l0,0c-2.304,0-3.456,2.521-3.456,5.4c0,2.664,1.297,5.543,3.673,5.759V41.4
	c-2.952,0-6.553-1.944-6.553-6.192C122.103,31.248,125.343,28.8,128.656,28.728L128.656,28.728z M128.656,46.08v11.952h-1.081
	c-0.864,0-1.943,0-2.88,0l0.145-0.432l1.44-0.721c0.071-0.216,0.144-2.016,0.144-5.112V47.16l-1.584-0.647l0.216-0.505
	c0.863,0,1.729,0.072,2.592,0.072H128.656L128.656,46.08z M105.254,58.032V57.24c0.721-0.216,1.152-0.504,1.513-0.936
	c0.504-0.576,0.647-1.225,0.647-1.8l0,0c0-1.081-0.504-2.017-2.16-2.305v-1.152c0.864-0.288,1.513-0.936,1.513-2.159
	c0-1.08-0.432-1.584-0.936-1.872c-0.217-0.145-0.36-0.145-0.577-0.216v-0.865c2.809,0.072,4.248,0.937,4.248,2.665
	c0,1.8-1.584,2.592-3.167,2.808v0.145c2.88,0.215,3.888,1.295,3.888,2.952C110.223,57.096,107.631,57.888,105.254,58.032
	L105.254,58.032z M105.254,41.112v-0.937l0.577-0.287c0.144-0.648,0.791-6.192,1.151-9.145c-0.288-0.648-0.36-0.648-1.729-1.152
	l0.217-0.504h3.96c0,0.432-0.071,0.576,0,0.648c0.433,1.008,1.728,3.6,3.384,7.128h0.072c0.504-1.008,1.8-3.6,3.312-6.984
	c0.072-0.144,0.072-0.432,0.072-0.792h4.177l-0.072,0.504l-1.512,0.648c0,1.872,0.288,9,0.431,9.648l1.657,0.72l-0.145,0.504
	c-0.863,0-1.8-0.071-2.664-0.071c-0.937,0-1.872,0.071-2.808,0.071l0.144-0.504l1.08-0.72c0-2.881-0.072-5.76-0.072-8.64h-0.072
	c-0.936,2.088-2.231,4.896-4.248,9.864l-0.431,0.144c-0.864-2.159-1.657-4.031-4.032-9.792h-0.072
	c-0.217,2.736-0.504,7.488-0.504,8.424l1.583,0.72l-0.071,0.504c-0.721,0-1.44-0.071-2.16-0.071
	C106.047,41.041,105.615,41.112,105.254,41.112L105.254,41.112z M105.254,24.12v-1.152l1.513,0.648l-0.145,0.576
	C106.191,24.192,105.687,24.12,105.254,24.12L105.254,24.12z M105.254,13.248v-1.08c0.433,0,0.793,0,1.225,0l-0.144,0.504
	L105.254,13.248L105.254,13.248z M112.311,12.168c-0.72,0-1.367,0-2.159,0c-0.864,0-1.729-0.072-2.593-0.072l-0.216,0.504
	c0.863,0.36,1.296,0.576,1.584,1.08c1.512,3.6,3.888,9.648,4.32,10.8h0.216c0.432-0.288,1.08-1.008,1.368-1.512
	c1.655-4.176,3.312-8.496,3.888-9.432c0.288-0.36,0.648-0.576,1.439-0.936l0.072-0.504c-0.648,0-1.296,0.072-1.871,0.072
	c-0.433,0-0.937,0-1.297,0l-0.145,0.504l0.576,0.576c-0.863,2.88-2.159,6.336-2.808,8.063l0,0c-2.304-5.904-2.88-7.416-3.168-8.136
	l0.647-0.504L112.311,12.168L112.311,12.168z M111.736,46.583l1.367,0.576v4.607c0,3.025-0.071,4.896-0.144,5.112l-1.368,0.648
	l-0.144,0.504c0.936,0,1.943,0,2.88,0c0.936,0,1.943,0,2.879,0l0.145-0.504l-1.584-0.648c-0.072-0.216-0.145-2.016-0.145-5.112
	V47.16l1.296-0.576l0.145-0.576c-0.936,0-1.8,0.072-2.664,0.072c-0.863,0-1.655-0.072-2.521-0.072L111.736,46.583L111.736,46.583z
	 M118.215,46.583l1.656,0.648c0,0.432,0,1.439,0.072,4.464c0,2.305,0,3.744,0,5.328c-0.072,1.943-0.505,2.735-1.801,3.743v0.145
	l0.504,0.505c0.721-0.433,2.809-1.945,3.456-3.889c0.288-0.792,0.36-1.584,0.36-2.593c0-1.151,0.072-5.831,0-7.703l1.296-0.648
	l0.144-0.576c-1.008,0-1.943,0.072-2.808,0.072c-0.937,0-1.872-0.072-2.735-0.072L118.215,46.583z M105.254,12.168v1.08h-0.144v4.68
	c0,3.024,0.072,4.896,0.072,5.04h0.071v1.152c-0.504,0-1.007,0-1.511,0c-0.937,0-1.872,0.072-2.809,0.072l0.144-0.576l1.369-0.648
	c0.071-0.216,0.071-2.016,0.071-5.04v-4.68l-1.296-0.576l0.145-0.504c0.863,0,1.655,0,2.447,0
	C104.319,12.168,104.75,12.168,105.254,12.168L105.254,12.168z M105.254,40.175v0.937c-0.287,0-0.575,0-0.863,0l0.145-0.504
	L105.254,40.175L105.254,40.175z M105.254,45.935V46.8c-0.359-0.072-0.719-0.145-1.151-0.145h-0.433v4.607
	c0.505,0,1.08,0,1.584-0.216V52.2c-0.432-0.071-1.007-0.144-1.584-0.144v0.287c0,1.657,0,3.961,0.073,5.04
	c0.575,0,1.079-0.071,1.511-0.144v0.792c-0.504,0.072-0.936,0.072-1.367,0.072c-1.439,0-2.809-0.072-4.248-0.072l0.145-0.504
	l1.224-0.648c0-0.359,0.071-1.583,0.071-4.104v-5.688l-1.368-0.505l0.145-0.432c0.647-0.072,3.385-0.288,4.608-0.288
	C104.75,45.864,104.967,45.935,105.254,45.935L105.254,45.935z M96.903,58.175v-2.808c0.145,0.216,0.288,0.36,0.36,0.504
	c1.151,1.729,1.44,1.944,1.655,2.232l-0.215,0.216C97.983,58.32,97.407,58.248,96.903,58.175L96.903,58.175z M96.903,50.616v-3.527
	c0.433,0.504,0.648,1.151,0.648,1.872C97.551,49.679,97.335,50.184,96.903,50.616L96.903,50.616z M96.903,41.4v-0.721
	c0.145,0,0.216,0,0.288,0c2.664,0,3.384-3.167,3.384-5.471c0-2.232-1.151-5.544-3.672-5.688v-0.792h0.072l0,0
	c2.735,0,6.408,1.8,6.48,6.192c0.071,4.536-3.385,6.48-6.48,6.48H96.903L96.903,41.4z M96.903,23.544v-4.392
	c0.576,0.936,1.296,2.088,1.801,2.808c1.224,1.728,1.439,1.944,1.656,2.232l-0.217,0.216C98.487,24.408,97.551,24.048,96.903,23.544
	L96.903,23.544z M96.903,17.784v-5.472c1.512,0.504,2.088,1.44,2.088,2.736C98.991,16.488,97.911,17.28,96.903,17.784z
	 M96.903,12.312v5.472c-0.216,0.072-0.432,0.144-0.648,0.216v0.072c0.145,0.216,0.36,0.648,0.648,1.08v4.392
	c-0.216-0.144-0.359-0.36-0.504-0.576c-0.792-0.792-1.943-2.664-2.951-4.536V18.36c1.728-0.432,2.807-1.152,2.807-2.88
	c0-2.088-1.439-2.664-3.311-2.664v5.472c0,2.52,0,3.888,0.071,4.68l1.729,0.648l-0.145,0.504c-0.936,0-1.943,0-2.88,0
	c-0.936,0-1.943,0-2.952,0l0.144-0.504l1.369-0.648c0-0.576,0.144-2.232,0.144-4.68v-5.112l-1.513-0.288l0.145-0.504
	c0.792-0.144,3.097-0.36,5.111-0.36C95.319,12.024,96.183,12.096,96.903,12.312L96.903,12.312z M96.903,28.728v0.792
	c-0.071,0-0.144,0-0.216,0l0,0c-2.304,0-3.384,2.521-3.384,5.4c0,2.664,1.224,5.543,3.6,5.759V41.4
	c-2.951,0-6.552-1.944-6.552-6.192C90.351,31.248,93.591,28.8,96.903,28.728L96.903,28.728z M96.903,47.088v3.527
	c-0.575,0.72-1.367,1.08-2.088,1.296v0.072c0.36,0.647,1.368,2.232,2.088,3.384v2.808c-0.936-0.287-1.512-0.72-2.016-1.296
	c-0.721-0.863-1.872-2.663-2.88-4.536v-0.071c1.729-0.433,2.808-1.152,2.808-2.952c0-2.016-1.439-2.592-3.313-2.592V52.2
	c0,2.521,0,3.889,0.072,4.68l1.656,0.648l-0.072,0.504c-0.936,0-1.943,0-2.879,0c-1.009,0-1.944,0-2.952,0l0.144-0.504l1.368-0.648
	c0-0.647,0.071-2.231,0.071-4.68v-5.111L87.399,46.8l0.216-0.576c0.792-0.072,3.096-0.36,5.112-0.36
	C94.887,45.864,96.183,46.296,96.903,47.088L96.903,47.088z M82.647,58.248V57.24c0.647-0.36,1.009-0.936,1.009-1.728
	c0-0.72-0.433-1.225-1.009-1.584v-3.169c0.36,0.216,0.792,0.433,1.297,0.648c1.871,1.009,2.231,2.088,2.231,3.24
	C86.175,56.952,84.375,57.96,82.647,58.248L82.647,58.248z M82.647,46.583V45.72c0.576,0.072,1.009,0.287,1.297,0.504
	c0.215-0.217,0.863-0.432,1.367-0.576l0.288,0.072c0,0.359-0.359,2.231-0.647,3.096l-0.288,0.145
	c-0.288-0.433-0.792-1.585-0.937-2.017C83.511,46.8,83.152,46.656,82.647,46.583L82.647,46.583z M82.647,41.112V40.32l0.647,0.288
	l-0.216,0.504H82.647L82.647,41.112z M82.647,36.216c1.08,1.512,2.089,2.808,2.809,3.527c1.08,1.08,1.799,1.584,4.32,1.584
	l0.071-0.144c-0.144-0.288-0.504-0.792-1.872-2.448c-1.152-1.512-2.809-3.6-3.744-4.896l0,0c1.152-1.512,2.088-2.52,2.736-3.168
	c0.216-0.216,0.432-0.288,0.576-0.36c0.575-0.144,1.728-0.504,2.088-0.72l0.145-0.504c-0.361,0-1.944-0.072-3.601,0
	c-0.072,0.216-0.072,0.504-0.072,0.936c-0.433,0.72-1.439,1.944-3.456,4.392V36.216L82.647,36.216z M82.647,29.664v-0.576h0.288
	l-0.145,0.504L82.647,29.664L82.647,29.664z M82.647,24.12v-0.936l1.225,0.432l-0.145,0.504C83.368,24.12,83.007,24.12,82.647,24.12
	L82.647,24.12z M82.647,19.368V18.72c1.512-0.216,2.376-1.368,2.376-2.952c0-1.8-1.008-2.592-2.376-2.808v-0.936
	c1.584,0,2.664,0.216,3.528,0.72c1.152,0.72,1.584,1.8,1.584,2.952c0,2.952-2.808,3.744-4.392,3.744
	C83.079,19.44,82.791,19.44,82.647,19.368z M82.647,12.024v0.936c-0.359-0.072-0.648-0.144-1.008-0.144v4.824
	c0,4.32,0.071,4.968,0.071,5.256l0.937,0.288v0.936c-0.792,0-1.512,0-2.304,0s-1.8,0-2.736,0l0.144-0.504l1.297-0.648
	c0.071-0.36,0.071-1.584,0.071-5.256v-4.464l-1.512-0.504l0.144-0.504c1.872-0.144,3.097-0.216,4.465-0.216
	C82.36,12.024,82.502,12.024,82.647,12.024L82.647,12.024z M82.647,18.72c-0.072,0-0.216,0.072-0.287,0.072l0.143,0.576
	c0.072,0,0.072,0,0.145,0V18.72L82.647,18.72z M82.647,29.088v0.576l-1.008,0.576v4.608c0,3.024,0,4.896,0.071,5.113l0.937,0.359
	v0.792c-0.792,0-1.584-0.071-2.448-0.071c-0.792,0-1.728,0.071-2.663,0.071l0.144-0.504l1.296-0.647
	c0.072-0.289,0.144-2.089,0.144-5.113V30.24l-1.368-0.648l0.145-0.504c0.792,0,1.584,0,2.304,0
	C81.063,29.088,81.855,29.088,82.647,29.088L82.647,29.088z M82.647,34.416l-0.648,0.792v0.072c0.217,0.36,0.433,0.648,0.648,0.937
	V34.416L82.647,34.416z M82.647,45.72v0.863c-0.072,0-0.145,0-0.287,0c-1.225,0-2.232,0.721-2.232,1.872
	c0,0.72,0.432,1.152,1.079,1.585c0.36,0.144,0.864,0.431,1.44,0.719v3.169c-0.072-0.072-0.072-0.072-0.145-0.072
	c-1.008-0.576-1.727-1.009-2.663-1.513c-1.225-0.719-1.872-1.655-1.872-3.096c0-1.872,1.512-3.527,4.104-3.527l0,0
	C82.288,45.72,82.431,45.72,82.647,45.72L82.647,45.72z M82.647,57.24v1.008c-0.432,0.072-0.792,0.145-1.152,0.145
	c-1.8,0-3.527-0.937-3.888-1.225c0.144-0.72,0.792-2.304,1.008-2.663l0.288-0.145c0.072,0.288,0.433,1.512,0.792,2.88
	c0.072,0.072,0.648,0.288,1.585,0.288C81.784,57.528,82.288,57.383,82.647,57.24L82.647,57.24z M12.024,12.096
	c11.952,0,20.16,1.44,21.888-12.096c0,23.616,0.864,32.256-21.888,32.112V12.096L12.024,12.096z M12.024,57.671
	c0-11.879,1.44-20.159-12.024-21.888c23.544,0,32.184-0.864,32.112,21.888H12.024L12.024,57.671z M57.6,12.096
	c0,11.88-1.44,20.16,12.096,21.888c-23.616,0-32.256,0.864-32.112-21.888H57.6L57.6,12.096z M57.6,57.671
	c-11.88,0-20.16-1.439-21.888,12.096c0-23.615-0.864-32.255,21.888-32.111V57.671z"/>
</svg>
