<?xml version="1.0" encoding="utf-8"?>
<!-- Generator: Adobe Illustrator 13.0.0, SVG Export Plug-In . SVG Version: 6.00 Build 14948)  -->
<!DOCTYPE svg PUBLIC "-//W3C//DTD SVG 1.1//EN" "http://www.w3.org/Graphics/SVG/1.1/DTD/svg11.dtd">
<svg version="1.1" id="Layer_1" xmlns="http://www.w3.org/2000/svg" xmlns:xlink="http://www.w3.org/1999/xlink" x="0px" y="0px"
	 width="270.921px" height="69.697px" viewBox="0 0 270.921 69.697" enable-background="new 0 0 270.921 69.697"
	 xml:space="preserve">
<path fill-rule="evenodd" clip-rule="evenodd" fill="#005480" d="M33.912,0c0,23.545,0.864,32.185-21.888,32.112V12.024
	C23.976,12.024,32.184,13.465,33.912,0z M0,35.713c13.464,1.728,12.024,10.008,12.024,21.888h20.088
	C32.184,34.849,23.544,35.713,0,35.713z M57.6,12.024H37.584C37.44,34.777,46.08,33.912,69.696,33.912
	C56.16,32.185,57.6,23.977,57.6,12.024z M35.712,69.697C37.44,56.232,45.72,57.601,57.6,57.601V37.584
	C34.848,37.44,35.712,46.08,35.712,69.697z M84.39,11.809c-2.949,0-6.881,1.93-6.881,6.426c0,4.332,3.495,6.244,7.009,6.244
	c0.946,0,2.53-0.311,3.076-0.492c0.31-0.346,1.184-1.82,1.456-2.639l-0.327-0.383c-0.71,0.547-1.62,1.348-2.713,2.422
	c-0.2,0.055-0.382,0.072-0.728,0.072c-3.24,0-4.934-2.549-4.934-5.352c0-2.768,1.693-5.352,4.824-5.352
	c0.855,0,1.456,0.162,1.783,0.363c0.201,0.691,0.547,1.766,0.802,2.439l0.437-0.182c0.182-0.455,0.746-2.785,0.801-3.35
	l-0.109-0.074c-0.437,0.055-1.165,0.201-1.747,0.438c-0.546-0.309-1.401-0.582-2.73-0.582H84.39z M90.635,12.646l1.348,0.654v4.496
	c0,2.24-0.092,4.789-0.109,5.189l-1.293,0.654l-0.146,0.51c0.91,0,1.839-0.018,2.749-0.018c0.782,0,1.565,0.018,2.349,0.018
	l0.146-0.51l-1.093-0.674c-0.055-1.783-0.018-3.33-0.018-4.66h2.931c0.928,0,1.692-0.035,2.166-0.127
	c0,1.566,0.036,3.168-0.019,4.807l-0.855,0.637l-0.164,0.527c0.819,0,1.639-0.018,2.439-0.018c0.91,0,1.839,0.018,2.749,0.018
	l0.127-0.51l-1.565-0.674c-0.072-0.236-0.127-2.984-0.127-5.041v-4.607l1.401-0.654l0.128-0.527c-0.929,0-1.857,0.018-2.785,0.018
	c-0.692,0-1.384-0.018-2.075-0.018l-0.128,0.527l0.874,0.619v3.949h-5.097v-3.914l0.873-0.617l0.164-0.564
	c-0.765,0-1.529,0.018-2.312,0.018c-0.819,0-1.657-0.018-2.494-0.018L90.635,12.646z M110.132,12.592l0.183,0.6
	c0.036,0.164,0.036,0.311-0.019,0.475c-1.492,3.768-3.422,8.355-3.896,9.229l-1.256,0.746l-0.146,0.51
	c0.673,0,1.347-0.018,2.002-0.018s1.329,0.018,1.984,0.018l0.146-0.51l-1.438-0.729c0.218-0.709,0.437-1.365,0.965-2.73
	c2.476,0.037,3.294-0.035,3.913-0.072c0.492,1.328,0.983,2.604,1.093,2.967l-0.619,0.602l-0.164,0.473
	c0.692,0,1.401-0.018,2.111-0.018c0.947,0,1.894,0.018,2.822,0.018l0.164-0.492c-1.348-0.582-1.566-0.709-1.912-1.637
	c-2.275-5.771-3.222-8.139-3.477-8.902c-0.219-0.582-0.273-0.746-0.273-1.311l-0.072-0.109L110.132,12.592z M110.733,14.611
	c0.346,1.111,0.855,2.549,1.528,4.516c-0.582,0-2.621-0.074-3.203-0.074c0.4-1.127,0.637-1.801,1.638-4.441H110.733z M119.69,12.646
	c1.42,0.527,1.438,0.49,1.747,1.146c-0.346,2.949-1.001,8.482-1.183,9.156l-1.293,0.709l-0.127,0.492
	c0.691,0,1.401-0.018,2.093-0.018c0.729,0,1.457,0.018,2.167,0.018l0.108-0.492l-1.62-0.727c0.019-0.91,0.273-5.68,0.51-8.41h0.037
	c2.402,5.77,3.186,7.609,4.077,9.775l0.437-0.129c2.021-4.969,3.313-7.791,4.205-9.885h0.073c0.036,2.895,0.073,5.771,0.109,8.684
	l-1.093,0.674l-0.146,0.51c0.947,0,1.857-0.018,2.785-0.018c0.91,0,1.82,0.018,2.712,0.018l0.127-0.51l-1.656-0.674
	c-0.109-0.637-0.437-7.791-0.455-9.684l1.529-0.619l0.109-0.51l-4.223-0.037c0,0.365,0.019,0.639-0.055,0.82
	c-1.529,3.367-2.84,5.988-3.331,7.008H127.3c-1.712-3.586-3.004-6.152-3.404-7.135c-0.055-0.129-0.037-0.256-0.037-0.693
	l-3.95,0.037L119.69,12.646z M136.474,12.701l1.402,0.455v5.732c0,2.494-0.072,3.77-0.109,4.078l-1.219,0.656l-0.129,0.51
	c1.475,0.035,2.785,0.055,4.225,0.055c2.676,0,6.406-0.492,6.406-3.551c0-1.693-1.072-2.748-3.895-2.984v-0.129
	c1.547-0.199,3.148-1.018,3.148-2.803c0-1.93-1.729-2.73-5.023-2.73c-1.221,0-3.969,0.164-4.66,0.236L136.474,12.701z
	 M140.462,12.756h0.4c0.764,0,1.346,0.127,1.729,0.326c0.527,0.311,0.982,0.855,0.982,1.875c0,1.93-1.564,2.422-3.111,2.439V12.756z
	 M144.175,20.619c0,0.547-0.109,1.201-0.582,1.766c-0.564,0.691-1.439,1.074-3.059,1.074c-0.055-1.074-0.072-3.367-0.072-5.025
	v-0.271c3.021-0.037,3.713,1.109,3.713,2.439V20.619z M148.31,12.609l1.564,0.637v4.625c0,3.076-0.055,4.896-0.109,5.096
	l-1.475,0.691l-0.145,0.492c0.928,0,2.02-0.037,2.895-0.037h3.275c1.057,0,2.039,0,3.186,0.055c0.182-0.418,0.691-2.84,0.711-3.166
	l-0.365-0.164c-0.582,0.545-1.438,1.639-2.092,2.475l-3.223-0.199c-0.072-1.385-0.072-3.586-0.072-4.66
	c0.727,0.018,3.367,0.236,3.604,0.236c0.254,0,1.074-1.02,1.129-1.238l-0.109-0.219c-1.201,0.109-3.059,0.256-4.623,0.256v-4.332
	l3.203-0.184c0.236,0.42,0.91,1.639,1.146,2.021l0.346-0.127c0.127-0.492,0.42-2.422,0.438-2.895l-0.055-0.074
	c-0.438,0.02-1.748,0.201-1.947,0.238h-4.516c-0.855,0-1.729-0.02-2.604-0.02L148.31,12.609z M159.523,12.863l1.512,0.348v5.115
	c0,2.402-0.092,4.041-0.129,4.678l-1.328,0.637l-0.146,0.51c0.984,0,1.967-0.018,2.932-0.018s1.93,0.018,2.877,0.018l0.127-0.51
	l-1.711-0.654c-0.037-0.82-0.037-2.186-0.037-4.68v-5.461c1.857-0.055,3.277,0.547,3.277,2.604c0,1.783-1.074,2.512-2.785,2.912
	l-0.037,0.109c1.037,1.82,2.184,3.678,2.949,4.533c0.729,0.855,1.584,1.402,3.768,1.42l0.201-0.219
	c-0.201-0.273-0.438-0.527-1.621-2.221c-0.746-1.092-2.039-3.148-2.457-3.932l0.018-0.037c1.148-0.383,2.73-1.201,2.73-2.984
	c0-1.912-1.383-3.041-4.824-3.041c-2.02,0-4.367,0.236-5.115,0.365L159.523,12.863z M182.498,11.809
	c-3.313,0-6.607,2.457-6.607,6.443c0,4.279,3.641,6.227,6.607,6.227c3.094,0,6.59-1.984,6.535-6.518
	c-0.072-4.387-3.787-6.152-6.518-6.152H182.498z M182.261,12.555c2.621,0,3.84,3.387,3.84,5.697c0,2.295-0.691,5.498-3.348,5.498
	c-2.568,0-3.934-2.986-3.934-5.807c0-2.857,1.111-5.389,3.424-5.389H182.261z M190.4,12.609l1.492,0.656v4.66
	c0,3.313-0.018,4.822-0.072,5.061l-1.311,0.654l-0.092,0.51c0.947,0,1.893-0.018,2.84-0.018c1.074,0,2.166,0.018,3.223,0.018
	l0.199-0.527l-2.129-0.674c-0.037-0.311-0.072-1.166-0.072-4.223c0.764,0,3.402,0.217,3.621,0.217c0.273,0,1.092-0.982,1.166-1.201
	l-0.146-0.254c-1.219,0.127-3.059,0.273-4.641,0.273v-4.643l3.33-0.146c0.273,0.602,0.729,1.566,1.057,2.24l0.346-0.127
	c0.127-0.455,0.51-2.586,0.527-3.113l-0.037-0.074c-0.418,0.037-1.527,0.184-1.875,0.238h-4.768c-0.82,0-1.658-0.02-2.477-0.02
	L190.4,12.609z M84.39,28.809c-2.949,0-6.881,1.93-6.881,6.426c0,4.332,3.495,6.244,7.009,6.244c0.946,0,2.53-0.311,3.076-0.492
	c0.31-0.346,1.184-1.82,1.456-2.639l-0.327-0.383c-0.71,0.547-1.62,1.348-2.713,2.422c-0.2,0.055-0.382,0.072-0.728,0.072
	c-3.24,0-4.934-2.549-4.934-5.352c0-2.768,1.693-5.352,4.824-5.352c0.855,0,1.456,0.162,1.783,0.363
	c0.201,0.691,0.547,1.766,0.802,2.439l0.437-0.182c0.182-0.455,0.746-2.785,0.801-3.35l-0.109-0.074
	c-0.437,0.055-1.165,0.201-1.747,0.438c-0.546-0.309-1.401-0.582-2.73-0.582H84.39z M96.861,28.809
	c-3.313,0-6.608,2.457-6.608,6.443c0,4.279,3.641,6.227,6.608,6.227c3.094,0,6.589-1.984,6.535-6.518
	c-0.073-4.387-3.787-6.152-6.518-6.152H96.861z M96.624,29.555c2.621,0,3.841,3.387,3.841,5.697c0,2.295-0.691,5.498-3.349,5.498
	c-2.567,0-3.933-2.986-3.933-5.807c0-2.857,1.11-5.389,3.423-5.389H96.624z M105.145,29.646c1.42,0.527,1.438,0.49,1.747,1.146
	c-0.346,2.949-1.001,8.482-1.183,9.156l-1.293,0.709l-0.127,0.492c0.691,0,1.401-0.018,2.093-0.018c0.729,0,1.457,0.018,2.167,0.018
	l0.108-0.492l-1.62-0.727c0.019-0.91,0.273-5.68,0.51-8.41h0.037c2.402,5.77,3.186,7.609,4.077,9.775l0.437-0.129
	c2.021-4.969,3.313-7.791,4.205-9.885h0.073c0.036,2.895,0.073,5.771,0.109,8.684l-1.093,0.674l-0.146,0.51
	c0.947,0,1.857-0.018,2.785-0.018c0.91,0,1.82,0.018,2.713,0.018l0.127-0.51l-1.656-0.674c-0.109-0.637-0.437-7.791-0.455-9.684
	l1.529-0.619l0.109-0.51l-4.224-0.037c0,0.365,0.019,0.639-0.055,0.82c-1.529,3.367-2.84,5.988-3.331,7.008h-0.037
	c-1.711-3.586-3.003-6.152-3.403-7.135c-0.055-0.129-0.037-0.256-0.037-0.693l-3.95,0.037L105.145,29.646z M122.313,29.646
	c1.42,0.527,1.438,0.49,1.747,1.146c-0.346,2.949-1.001,8.482-1.183,9.156l-1.293,0.709l-0.127,0.492
	c0.691,0,1.401-0.018,2.093-0.018c0.729,0,1.457,0.018,2.167,0.018l0.108-0.492l-1.62-0.727c0.019-0.91,0.273-5.68,0.51-8.41h0.037
	c2.402,5.77,3.186,7.609,4.077,9.775l0.437-0.129c2.021-4.969,3.313-7.791,4.205-9.885h0.073c0.036,2.895,0.073,5.771,0.109,8.684
	l-1.093,0.674l-0.146,0.51c0.947,0,1.858-0.018,2.786-0.018c0.91,0,1.82,0.018,2.713,0.018l0.127-0.51l-1.656-0.674
	c-0.109-0.637-0.438-7.791-0.455-9.684l1.529-0.619l0.109-0.51l-4.224-0.037c0,0.365,0.019,0.639-0.055,0.82
	c-1.529,3.367-2.84,5.988-3.331,7.008h-0.037c-1.711-3.586-3.003-6.152-3.403-7.135c-0.055-0.129-0.037-0.256-0.037-0.693
	l-3.95,0.037L122.313,29.646z M138.935,29.609l1.564,0.637v4.625c0,3.076-0.055,4.896-0.109,5.096l-1.475,0.691l-0.145,0.492
	c0.928,0,2.02-0.037,2.895-0.037h3.275c1.057,0,2.039,0,3.186,0.055c0.182-0.418,0.691-2.84,0.711-3.166l-0.365-0.164
	c-0.582,0.545-1.438,1.639-2.092,2.475l-3.223-0.199c-0.072-1.385-0.072-3.586-0.072-4.66c0.727,0.018,3.367,0.236,3.604,0.236
	c0.254,0,1.074-1.02,1.129-1.238l-0.109-0.219c-1.201,0.109-3.059,0.256-4.623,0.256v-4.332l3.203-0.184
	c0.236,0.42,0.91,1.639,1.146,2.021l0.346-0.127c0.127-0.492,0.42-2.422,0.438-2.895l-0.055-0.074
	c-0.438,0.02-1.748,0.201-1.947,0.238h-4.516c-0.855,0-1.729-0.02-2.604-0.02L138.935,29.609z M150.148,29.863l1.512,0.348v5.115
	c0,2.402-0.092,4.041-0.129,4.678l-1.328,0.637l-0.146,0.51c0.984,0,1.967-0.018,2.932-0.018s1.93,0.018,2.877,0.018l0.127-0.51
	l-1.711-0.654c-0.037-0.82-0.037-2.186-0.037-4.68v-5.461c1.857-0.055,3.277,0.547,3.277,2.604c0,1.783-1.074,2.512-2.785,2.912
	l-0.037,0.109c1.037,1.82,2.184,3.678,2.949,4.533c0.729,0.855,1.584,1.402,3.768,1.42l0.201-0.219
	c-0.201-0.273-0.438-0.527-1.621-2.221c-0.746-1.092-2.039-3.148-2.457-3.932l0.018-0.037c1.148-0.383,2.73-1.201,2.73-2.984
	c0-1.912-1.383-3.041-4.824-3.041c-2.02,0-4.367,0.236-5.115,0.365L150.148,29.863z M169.263,28.809
	c-2.949,0-6.881,1.93-6.881,6.426c0,4.332,3.494,6.244,7.008,6.244c0.947,0,2.531-0.311,3.076-0.492
	c0.311-0.346,1.184-1.82,1.457-2.639l-0.328-0.383c-0.709,0.547-1.619,1.348-2.713,2.422c-0.199,0.055-0.381,0.072-0.727,0.072
	c-3.24,0-4.934-2.549-4.934-5.352c0-2.768,1.693-5.352,4.824-5.352c0.855,0,1.455,0.162,1.783,0.363
	c0.201,0.691,0.547,1.766,0.801,2.439l0.438-0.182c0.182-0.455,0.746-2.785,0.801-3.35l-0.109-0.074
	c-0.438,0.055-1.166,0.201-1.748,0.438c-0.545-0.309-1.4-0.582-2.73-0.582H169.263z M175.291,29.609l1.564,0.637v4.625
	c0,3.076-0.055,4.896-0.109,5.096l-1.475,0.691l-0.145,0.492c0.928,0,2.02-0.037,2.895-0.037h3.275c1.057,0,2.039,0,3.186,0.055
	c0.182-0.418,0.691-2.84,0.711-3.166l-0.365-0.164c-0.582,0.545-1.438,1.639-2.092,2.475l-3.223-0.199
	c-0.072-1.385-0.072-3.586-0.072-4.66c0.727,0.018,3.367,0.236,3.604,0.236c0.254,0,1.074-1.02,1.129-1.238l-0.109-0.219
	c-1.201,0.109-3.059,0.256-4.623,0.256v-4.332l3.203-0.184c0.236,0.42,0.91,1.639,1.146,2.021l0.346-0.127
	c0.127-0.492,0.42-2.422,0.438-2.895l-0.055-0.074c-0.438,0.02-1.748,0.201-1.947,0.238h-4.516c-0.855,0-1.729-0.02-2.604-0.02
	L175.291,29.609z M195.115,29.592l0.182,0.6c0.037,0.164,0.037,0.311-0.018,0.475c-1.492,3.768-3.422,8.355-3.896,9.229
	l-1.256,0.746l-0.145,0.51c0.672,0,1.346-0.018,2.002-0.018c0.654,0,1.328,0.018,1.984,0.018l0.145-0.51l-1.438-0.729
	c0.219-0.709,0.438-1.365,0.965-2.73c2.477,0.037,3.295-0.035,3.914-0.072c0.492,1.328,0.982,2.604,1.092,2.967l-0.619,0.602
	l-0.164,0.473c0.693,0,1.402-0.018,2.111-0.018c0.947,0,1.895,0.018,2.822,0.018l0.164-0.492c-1.348-0.582-1.566-0.709-1.912-1.637
	c-2.275-5.771-3.221-8.139-3.477-8.902c-0.219-0.582-0.273-0.746-0.273-1.311l-0.072-0.109L195.115,29.592z M195.716,31.611
	c0.346,1.111,0.855,2.549,1.527,4.516c-0.582,0-2.621-0.074-3.203-0.074c0.4-1.127,0.637-1.801,1.639-4.441H195.716z
	 M208.458,40.641l-1.93-0.764c-0.162-0.674-0.162-4.951-0.127-7.736h0.037c3.477,4.459,6.754,8.172,8.338,9.373l0.4-0.107
	c0.035-0.4,0.072-1.258,0.072-1.84c0.035-3.367,0.219-8.41,0.236-9.193l1.328-0.727l0.146-0.51c-0.711,0-1.42,0.018-2.148,0.018
	c-0.691,0-1.51-0.018-2.275-0.018l-0.164,0.49l1.895,0.746c0.018,0.965,0.107,6.391,0.107,7.1h-0.035
	c-2.367-2.602-3.986-4.531-6.299-7.316c-0.438-0.547-0.691-0.965-0.746-1.111l-3.441,0.109l-0.219,0.492
	c0.857,0.326,1.148,0.381,1.967,1.475c-0.127,5.17-0.273,8.063-0.346,8.736l-1.42,0.766l-0.072,0.527
	c0.729,0,1.455-0.018,2.184-0.018c0.783,0,1.621,0.018,2.385,0.018L208.458,40.641z M218.072,29.682l1.457,0.51v4.697
	c0,3.039-0.037,4.805-0.109,5.152l-1.348,0.582l-0.146,0.51c0.656,0.018,1.967,0.055,3.096,0.055c2.566,0,4.113-0.109,5.516-0.639
	c1.783-0.637,4.041-2.221,4.041-5.715c0-3.477-2.166-5.844-7.791-5.844c-2.293,0-4.223,0.201-4.605,0.236L218.072,29.682z
	 M222.113,29.811c1.584,0,2.84,0.236,3.969,1.201c1.238,1.037,1.639,2.584,1.639,3.967c0,1.875-0.564,3.205-1.549,4.152
	c-1.055,1-2.639,1.328-3.986,1.328c-0.072-0.273-0.072-2.549-0.072-5.57V29.811z M77.618,46.646l1.329,0.637v4.605
	c0,3.021-0.037,4.879-0.109,5.078l-1.348,0.674l-0.146,0.51c0.947,0,1.894-0.037,2.84-0.037c0.965,0,1.93,0.037,2.876,0.037
	l0.146-0.51l-1.583-0.654c-0.037-0.201-0.091-2.059-0.091-5.098v-4.605l1.237-0.637l0.146-0.51c-0.892,0-1.784,0.018-2.676,0.018
	c-0.819,0-1.62-0.018-2.457-0.018L77.618,46.646z M88.904,57.641l-1.93-0.764c-0.163-0.674-0.163-4.951-0.127-7.736h0.036
	c3.477,4.459,6.754,8.172,8.338,9.373l0.4-0.107c0.036-0.4,0.072-1.258,0.072-1.84c0.036-3.367,0.219-8.41,0.236-9.193l1.329-0.727
	l0.146-0.51c-0.71,0-1.42,0.018-2.147,0.018c-0.692,0-1.511-0.018-2.275-0.018l-0.164,0.49l1.894,0.746
	c0.018,0.965,0.108,6.391,0.108,7.1h-0.036c-2.366-2.602-3.986-4.531-6.299-7.316c-0.437-0.547-0.691-0.965-0.746-1.111l-3.44,0.109
	l-0.219,0.492c0.856,0.326,1.147,0.381,1.967,1.475c-0.128,5.17-0.273,8.063-0.347,8.736l-1.42,0.766l-0.072,0.527
	c0.729,0,1.456-0.018,2.185-0.018c0.782,0,1.62,0.018,2.385,0.018L88.904,57.641z M98.518,46.682l1.457,0.51v4.697
	c0,3.039-0.037,4.805-0.109,5.152l-1.348,0.582l-0.146,0.51c0.655,0.018,1.966,0.055,3.095,0.055c2.566,0,4.114-0.109,5.516-0.639
	c1.784-0.637,4.041-2.221,4.041-5.715c0-3.477-2.166-5.844-7.791-5.844c-2.293,0-4.223,0.201-4.605,0.236L98.518,46.682z
	 M102.56,46.811c1.583,0,2.84,0.236,3.968,1.201c1.238,1.037,1.639,2.584,1.639,3.967c0,1.875-0.564,3.205-1.548,4.152
	c-1.056,1-2.639,1.328-3.986,1.328c-0.072-0.273-0.072-2.549-0.072-5.57V46.811z M112.354,46.646l1.456,0.637
	c0.037,1.729,0.037,3.895,0.037,6.59c0,0.91,0.108,1.711,0.491,2.402c0.91,1.656,2.785,2.203,4.532,2.203
	c1.875,0,3.387-0.838,4.133-2.111c0.527-0.855,0.691-1.857,0.71-2.914c0.109-5.424,0.146-5.787,0.2-6.115l1.529-0.656l0.072-0.545
	c-0.746,0-1.529,0.018-2.294,0.018c-0.582,0-1.165-0.018-1.747-0.018l-0.128,0.545l1.293,0.619c0.073,1.602,0.091,3.367,0.109,6.189
	c0.018,1.111-0.237,1.912-0.601,2.457c-0.564,0.783-1.493,1.256-2.64,1.256c-1.256,0-2.13-0.473-2.621-1.219
	c-0.31-0.473-0.455-1.074-0.455-1.984c0-2.439,0-4.715,0.018-6.699l1.02-0.619l0.146-0.545c-0.819,0-1.656,0.018-2.494,0.018
	c-0.855,0-1.729-0.018-2.585-0.018L112.354,46.646z M130.723,45.809c-2.658,0-4.132,1.693-4.15,3.568c0,1.4,0.655,2.311,1.93,3.057
	c0.928,0.547,1.692,0.947,2.694,1.494c0.673,0.363,1.146,0.891,1.146,1.693c0,1.273-0.929,1.982-2.421,2.002
	c-0.893,0.018-1.511-0.219-1.62-0.291c-0.328-1.385-0.692-2.586-0.801-2.84l-0.273,0.145c-0.255,0.328-0.892,1.949-1.038,2.604
	c0.401,0.291,2.167,1.238,3.95,1.238c1.948,0,4.733-0.855,4.733-3.75c0-1.129-0.381-2.186-2.256-3.205
	c-1.184-0.617-2.112-1.092-2.713-1.42c-0.637-0.363-1.074-0.836-1.074-1.527c0-1.148,0.965-1.875,2.239-1.875
	c0.638,0,1.093,0.162,1.329,0.309c0.146,0.492,0.655,1.639,0.91,2.021l0.327-0.146c0.31-0.818,0.673-2.676,0.673-3.039l-0.291-0.129
	c-0.545,0.182-1.146,0.4-1.401,0.584c-0.364-0.273-1.074-0.492-1.875-0.492H130.723z M138.078,46.137
	c-0.383-0.074-1.328-0.256-1.656-0.256l-0.127,0.092c-0.092,0.51-0.146,2.693-0.129,3.313l0.328-0.092
	c0.42-0.527,1.146-1.674,1.512-2.293l2.385,0.146v4.986c0,3.75,0,4.406-0.037,4.934l-1.857,0.656l-0.145,0.527
	c1.146,0,2.293-0.018,3.422-0.018c1.092,0,2.186,0.018,3.277,0.018l0.164-0.51l-2.131-0.674c-0.035-0.436-0.109-0.891-0.109-5.516
	v-4.404l2.566-0.146c0.256,0.801,0.838,2.021,1.002,2.457l0.309-0.127c0.146-0.438,0.547-2.529,0.639-3.24l-0.092-0.109
	c-0.4,0.018-1.273,0.164-1.803,0.256H138.078z M148.619,46.863l1.512,0.348v5.115c0,2.402-0.092,4.041-0.129,4.678l-1.328,0.637
	l-0.146,0.51c0.984,0,1.967-0.018,2.932-0.018s1.93,0.018,2.877,0.018l0.127-0.51l-1.711-0.654c-0.037-0.82-0.037-2.186-0.037-4.68
	v-5.461c1.857-0.055,3.277,0.547,3.277,2.604c0,1.783-1.074,2.512-2.785,2.912l-0.037,0.109c1.037,1.82,2.184,3.678,2.949,4.533
	c0.729,0.855,1.584,1.402,3.768,1.42l0.201-0.219c-0.201-0.273-0.438-0.527-1.621-2.221c-0.746-1.092-2.039-3.148-2.457-3.932
	l0.018-0.037c1.148-0.383,2.73-1.201,2.73-2.984c0-1.912-1.383-3.041-4.824-3.041c-2.02,0-4.367,0.236-5.115,0.365L148.619,46.863z
	 M160.035,46.609c0.801,0.309,1.201,0.51,1.527,0.818c1.148,1.912,2.404,4.225,2.805,4.916c0.182,0.328,0.273,0.545,0.273,0.729
	c0,2.803-0.092,3.713-0.109,3.949l-1.912,0.637l-0.127,0.492c1.164,0,2.348-0.018,3.514-0.018c1.055,0,2.129,0.018,3.203,0.018
	l0.127-0.51l-2.039-0.619c-0.055-0.199-0.072-1.273-0.072-4.078c0-0.145,0.072-0.326,0.164-0.545
	c1.475-2.822,2.293-4.006,2.73-4.715c0.219-0.311,0.363-0.438,0.746-0.582l1.074-0.438l0.092-0.527
	c-0.693,0-1.385,0.018-2.076,0.018c-0.455,0-0.91,0-1.383,0l-0.219,0.492l0.783,0.527c-0.492,1.109-1.402,2.857-2.295,4.66h-0.035
	c-1.566-2.912-2.367-4.387-2.512-4.715l0.508-0.4l0.129-0.564c-0.711,0-1.42,0-2.111,0c-0.855,0-1.73-0.018-2.604-0.018
	L160.035,46.609z M183.41,45.809c-3.314,0-6.609,2.457-6.609,6.443c0,4.279,3.641,6.227,6.609,6.227
	c3.094,0,6.588-1.984,6.535-6.518c-0.074-4.387-3.787-6.152-6.518-6.152H183.41z M183.171,46.555c2.621,0,3.842,3.387,3.842,5.697
	c0,2.295-0.691,5.498-3.35,5.498c-2.566,0-3.932-2.986-3.932-5.807c0-2.857,1.109-5.389,3.422-5.389H183.171z M191.31,46.609
	l1.492,0.656v4.66c0,3.313-0.018,4.822-0.072,5.061l-1.311,0.654l-0.092,0.51c0.947,0,1.893-0.018,2.84-0.018
	c1.074,0,2.166,0.018,3.223,0.018l0.199-0.527l-2.129-0.674c-0.037-0.311-0.072-1.166-0.072-4.223c0.764,0,3.402,0.217,3.621,0.217
	c0.273,0,1.092-0.982,1.166-1.201l-0.146-0.254c-1.219,0.127-3.059,0.273-4.641,0.273v-4.643l3.33-0.146
	c0.273,0.602,0.729,1.566,1.057,2.24l0.346-0.127c0.127-0.455,0.51-2.586,0.527-3.113l-0.037-0.074
	c-0.418,0.037-1.527,0.184-1.875,0.238h-4.768c-0.82,0-1.658-0.02-2.477-0.02L191.31,46.609z M210.371,45.809
	c-2.658,0-4.133,1.693-4.15,3.568c0,1.4,0.654,2.311,1.93,3.057c0.928,0.547,1.691,0.947,2.693,1.494
	c0.674,0.363,1.146,0.891,1.146,1.693c0,1.273-0.928,1.982-2.42,2.002c-0.893,0.018-1.512-0.219-1.621-0.291
	c-0.328-1.385-0.691-2.586-0.801-2.84l-0.273,0.145c-0.254,0.328-0.891,1.949-1.037,2.604c0.4,0.291,2.166,1.238,3.949,1.238
	c1.949,0,4.734-0.855,4.734-3.75c0-1.129-0.383-2.186-2.258-3.205c-1.184-0.617-2.111-1.092-2.713-1.42
	c-0.637-0.363-1.074-0.836-1.074-1.527c0-1.148,0.965-1.875,2.24-1.875c0.637,0,1.092,0.162,1.328,0.309
	c0.146,0.492,0.656,1.639,0.91,2.021l0.328-0.146c0.309-0.818,0.674-2.676,0.674-3.039l-0.291-0.129
	c-0.547,0.182-1.146,0.4-1.402,0.584c-0.363-0.273-1.074-0.492-1.875-0.492H210.371z M215.705,46.609l1.566,0.637v4.625
	c0,3.076-0.055,4.896-0.109,5.096l-1.475,0.691l-0.146,0.492c0.928,0,2.021-0.037,2.895-0.037h3.277c1.055,0,2.039,0,3.186,0.055
	c0.182-0.418,0.691-2.84,0.709-3.166l-0.363-0.164c-0.582,0.545-1.438,1.639-2.094,2.475l-3.223-0.199
	c-0.072-1.385-0.072-3.586-0.072-4.66c0.729,0.018,3.367,0.236,3.604,0.236c0.256,0,1.074-1.02,1.129-1.238l-0.109-0.219
	c-1.201,0.109-3.057,0.256-4.623,0.256v-4.332l3.203-0.184c0.238,0.42,0.91,1.639,1.148,2.021l0.346-0.127
	c0.127-0.492,0.418-2.422,0.436-2.895l-0.055-0.074c-0.436,0.02-1.746,0.201-1.947,0.238h-4.514c-0.855,0-1.73-0.02-2.604-0.02
	L215.705,46.609z M226.919,46.863l1.512,0.348v5.115c0,2.402-0.092,4.041-0.129,4.678l-1.328,0.637l-0.146,0.51
	c0.984,0,1.967-0.018,2.932-0.018s1.93,0.018,2.877,0.018l0.127-0.51l-1.711-0.654c-0.037-0.82-0.037-2.186-0.037-4.68v-5.461
	c1.857-0.055,3.277,0.547,3.277,2.604c0,1.783-1.074,2.512-2.785,2.912l-0.037,0.109c1.037,1.82,2.184,3.678,2.949,4.533
	c0.729,0.855,1.584,1.402,3.768,1.42l0.201-0.219c-0.201-0.273-0.438-0.527-1.621-2.221c-0.746-1.092-2.039-3.148-2.457-3.932
	l0.018-0.037c1.148-0.383,2.73-1.201,2.73-2.984c0-1.912-1.383-3.041-4.824-3.041c-2.02,0-4.367,0.236-5.115,0.365L226.919,46.863z
	 M239.189,46.701l1.402,0.455v5.732c0,2.494-0.072,3.77-0.109,4.078l-1.219,0.656l-0.129,0.51c1.475,0.035,2.785,0.055,4.225,0.055
	c2.676,0,6.406-0.492,6.406-3.551c0-1.693-1.072-2.748-3.895-2.984v-0.129c1.547-0.199,3.148-1.018,3.148-2.803
	c0-1.93-1.729-2.73-5.023-2.73c-1.221,0-3.969,0.164-4.66,0.236L239.189,46.701z M243.177,46.756h0.4
	c0.764,0,1.346,0.127,1.729,0.326c0.527,0.311,0.982,0.855,0.982,1.875c0,1.93-1.564,2.422-3.111,2.439V46.756z M246.89,54.619
	c0,0.547-0.109,1.201-0.582,1.766c-0.564,0.691-1.439,1.074-3.059,1.074c-0.055-1.074-0.072-3.367-0.072-5.025v-0.271
	c3.021-0.037,3.713,1.109,3.713,2.439V54.619z M251.259,46.646l1.33,0.637v4.605c0,3.021-0.037,4.879-0.109,5.078l-1.348,0.674
	l-0.146,0.51c0.947,0,1.895-0.037,2.84-0.037c0.965,0,1.93,0.037,2.877,0.037l0.146-0.51l-1.584-0.654
	c-0.037-0.201-0.092-2.059-0.092-5.098v-4.605l1.238-0.637l0.145-0.51c-0.891,0-1.783,0.018-2.676,0.018
	c-0.818,0-1.619-0.018-2.457-0.018L251.259,46.646z M263.074,46.592l0.184,0.6c0.035,0.164,0.035,0.311-0.02,0.475
	c-1.492,3.768-3.422,8.355-3.895,9.229l-1.256,0.746l-0.146,0.51c0.674,0,1.348-0.018,2.002-0.018c0.656,0,1.33,0.018,1.984,0.018
	l0.146-0.51l-1.438-0.729c0.217-0.709,0.436-1.365,0.965-2.73c2.475,0.037,3.293-0.035,3.912-0.072
	c0.492,1.328,0.984,2.604,1.094,2.967l-0.619,0.602l-0.164,0.473c0.691,0,1.4-0.018,2.111-0.018c0.947,0,1.893,0.018,2.822,0.018
	l0.164-0.492c-1.348-0.582-1.566-0.709-1.912-1.637c-2.275-5.771-3.223-8.139-3.477-8.902c-0.219-0.582-0.273-0.746-0.273-1.311
	l-0.072-0.109L263.074,46.592z M263.675,48.611c0.346,1.111,0.855,2.549,1.529,4.516c-0.582,0-2.621-0.074-3.203-0.074
	c0.4-1.127,0.637-1.801,1.637-4.441H263.675z"/>
</svg>
